<svg width="194" height="39" viewBox="0 0 194 39" fill="none" xmlns="http://www.w3.org/2000/svg">
<path d="M191 7H171C169.343 7 168 8.34315 168 10V19.4074C168 21.0643 169.343 22.4074 171 22.4074H191C192.657 22.4074 194 21.0643 194 19.4074V10C194 8.34315 192.657 7 191 7Z" fill="#3BB8EA"/>
<path d="M172 10.875H173.586V16.5907H177.023V17.919H172V10.875Z" fill="white"/>
<path d="M177.802 12.5057H179.329V17.9195H177.802V12.5057ZM178.566 11.7509C178.285 11.7509 178.056 11.6671 177.88 11.4994C177.704 11.3317 177.616 11.1237 177.616 10.8755C177.616 10.6272 177.704 10.4193 177.88 10.2516C178.056 10.0839 178.285 10 178.566 10C178.846 10 179.075 10.0805 179.251 10.2415C179.427 10.4025 179.515 10.6038 179.515 10.8453C179.515 11.1069 179.427 11.325 179.251 11.4994C179.075 11.6671 178.846 11.7509 178.566 11.7509Z" fill="white"/>
<path d="M184.145 17.6583C183.995 17.7723 183.809 17.8595 183.587 17.9199C183.371 17.9736 183.143 18.0004 182.901 18.0004C182.275 18.0004 181.788 17.836 181.442 17.5073C181.103 17.1786 180.933 16.6956 180.933 16.0583V13.8344H180.12V12.6268H180.933V11.3086H182.461V12.6268H183.773V13.8344H182.461V16.0382C182.461 16.2662 182.516 16.444 182.627 16.5715C182.745 16.6922 182.908 16.7526 183.117 16.7526C183.358 16.7526 183.564 16.6855 183.734 16.5514L184.145 17.6583Z" fill="white"/>
<path d="M190 15.2323C190 15.2525 189.99 15.3934 189.971 15.655H185.985C186.057 15.9904 186.227 16.2554 186.494 16.45C186.762 16.6445 187.095 16.7418 187.493 16.7418C187.767 16.7418 188.009 16.7015 188.218 16.621C188.433 16.5338 188.632 16.3996 188.815 16.2185L189.628 17.1241C189.132 17.7078 188.407 17.9996 187.454 17.9996C186.86 17.9996 186.335 17.8822 185.878 17.6474C185.421 17.4059 185.068 17.0738 184.82 16.6512C184.572 16.2286 184.448 15.7489 184.448 15.2122C184.448 14.6822 184.569 14.2059 184.81 13.7833C185.058 13.3539 185.395 13.0219 185.819 12.7871C186.25 12.5456 186.729 12.4248 187.258 12.4248C187.774 12.4248 188.241 12.5388 188.658 12.7669C189.076 12.995 189.403 13.3238 189.638 13.7531C189.879 14.1757 190 14.6688 190 15.2323ZM187.268 13.6122C186.922 13.6122 186.632 13.7129 186.397 13.9141C186.162 14.1154 186.018 14.3904 185.966 14.7393H188.561C188.508 14.3971 188.365 14.1254 188.13 13.9242C187.895 13.7162 187.607 13.6122 187.268 13.6122Z" fill="white"/>
<path d="M50.5387 29.639L45.6953 9.63379H49.4858L53.0656 24.3745L57.0667 9.63379H60.2254L64.0159 24.3745L67.5957 9.63379H71.1756L66.1217 29.639H61.91L58.3302 16.3724L54.7503 29.639H50.5387Z" fill="#3BB8EA"/>
<path d="M83.1785 27.9542C81.7045 29.4283 80.0198 30.06 78.1246 30.06C76.2294 30.06 74.5447 29.2177 73.0707 27.9542C71.8072 26.4801 70.9648 24.7955 70.9648 22.6897C70.9648 20.5839 71.5966 18.8992 73.0707 17.4251C74.5447 15.9511 76.0188 15.3193 78.1246 15.3193C80.2304 15.3193 81.7045 16.1617 83.1785 17.4251C84.6526 18.8992 85.2843 20.5839 85.2843 22.6897C85.2843 24.7955 84.6526 26.4801 83.1785 27.9542ZM75.5976 25.4272C76.2294 26.2695 77.0717 26.4801 78.1246 26.4801C79.1775 26.4801 80.0198 26.059 80.6516 25.4272C81.2833 24.5849 81.7045 23.7426 81.7045 22.6897C81.7045 21.6368 81.2833 20.5839 80.6516 19.9521C80.0198 19.1098 79.1775 18.8992 78.1246 18.8992C77.0717 18.8992 76.2294 19.3204 75.5976 19.9521C74.9659 20.7944 74.5447 21.6368 74.5447 22.6897C74.5447 23.7426 74.9659 24.7955 75.5976 25.4272Z" fill="#3BB8EA"/>
<path d="M99.1824 28.1651C97.7084 29.6392 96.0236 30.2709 94.1284 30.2709C92.2332 30.2709 90.5485 29.4286 89.0745 28.1651C87.811 26.6911 86.9688 25.0064 86.9688 22.9006C86.9688 20.7948 87.6004 19.1101 89.0745 17.6361C90.5485 16.162 92.0226 15.5303 94.1284 15.5303C96.0236 15.5303 97.7084 16.3726 99.1824 17.6361C100.657 19.1101 101.288 20.7948 101.288 22.9006C101.288 24.7958 100.446 26.6911 99.1824 28.1651ZM91.6014 25.4276C92.2332 26.2699 93.0755 26.4805 94.1284 26.4805C95.1813 26.4805 96.0236 26.0593 96.6554 25.4276C97.2871 24.5853 97.7083 23.7429 97.7083 22.69C97.7083 21.6371 97.2871 20.5842 96.6554 19.9525C96.0236 19.1101 95.1813 18.8996 94.1284 18.8996C93.0755 18.8996 92.2332 19.3207 91.6014 19.9525C90.9697 20.5842 90.5485 21.6371 90.5485 22.69C90.5485 23.7429 90.7591 24.7958 91.6014 25.4276Z" fill="#3BB8EA"/>
<path d="M114.977 13.6352H107.396V18.268H114.766V22.0584H107.396V29.8499H103.605V9.84473H114.766L114.977 13.6352Z" fill="#253033"/>
<path d="M120.451 24.3743C120.872 26.059 122.136 27.1119 124.241 27.1119C125.505 27.1119 126.558 26.6907 127.19 25.6378L129.927 27.3224C128.664 29.4283 126.558 30.2706 124.031 30.2706C121.714 30.2706 120.03 29.6388 118.766 28.1648C117.503 26.6907 116.871 25.0061 116.871 22.6897C116.871 20.5839 117.503 18.6886 118.977 17.4251C120.24 15.9511 121.925 15.3193 124.031 15.3193C125.926 15.3193 127.611 15.9511 128.874 17.4251C130.138 18.8992 130.769 20.5839 130.769 22.6897C130.769 23.1108 130.769 23.7426 130.559 24.1637L120.451 24.3743ZM120.451 21.4262H127.19C126.979 20.3733 126.558 19.7415 125.926 19.3204C125.294 18.8992 124.663 18.6886 123.82 18.6886C122.978 18.6886 122.136 18.8992 121.504 19.531C121.083 19.9521 120.662 20.5839 120.451 21.4262Z" fill="#253033"/>
<path d="M136.035 24.3743C136.456 26.059 137.72 27.1119 139.825 27.1119C141.089 27.1119 142.142 26.6907 142.774 25.6378L145.511 27.3224C144.248 29.4283 142.142 30.2706 139.615 30.2706C137.298 30.2706 135.614 29.6388 134.35 28.1648C133.087 26.6907 132.455 25.0061 132.455 22.6897C132.455 20.5839 133.087 18.6886 134.561 17.4251C135.824 15.9511 137.509 15.3193 139.615 15.3193C141.51 15.3193 143.195 15.9511 144.458 17.4251C145.722 18.8992 146.353 20.5839 146.353 22.6897C146.353 23.1108 146.353 23.7426 146.143 24.1637L136.035 24.3743ZM135.824 21.4262H142.563C142.352 20.3733 141.931 19.7415 141.299 19.3204C140.668 18.8992 140.036 18.6886 139.194 18.6886C138.351 18.6886 137.509 18.8992 136.877 19.531C136.456 19.9521 136.035 20.5839 135.824 21.4262Z" fill="#253033"/>
<path d="M158.776 10.0557H162.146V30.0609H158.776V28.3762C157.723 29.8503 156.249 30.482 154.354 30.482C152.459 30.482 150.985 29.6397 149.721 28.3762C148.458 26.9021 147.826 25.2175 147.826 23.1117C147.826 21.0059 148.458 19.3212 149.721 17.8472C150.985 16.3731 152.459 15.7414 154.354 15.7414C156.249 15.7414 157.723 16.3731 158.776 17.8472V10.0557ZM152.248 25.8492C152.88 26.6916 153.933 26.9021 154.986 26.9021C156.039 26.9021 156.881 26.481 157.723 25.8492C158.355 25.0069 158.776 24.1646 158.776 22.9011C158.776 21.6376 158.355 20.7953 157.723 19.953C157.092 19.1107 156.249 18.9001 154.986 18.9001C153.933 18.9001 153.091 19.3212 152.248 19.953C151.617 20.7953 151.195 21.6376 151.195 22.9011C151.195 24.1646 151.617 25.0069 152.248 25.8492Z" fill="#253033"/>
<path d="M27.5028 39H10.4972C4.61878 39 0 34.1713 0 28.5028V11.4972C0 5.61878 4.82873 1 10.4972 1H27.5028C33.3812 1 38 5.82873 38 11.4972V28.5028C38 34.3812 33.1713 39 27.5028 39Z" fill="#3BB8EA"/>
<path d="M24.9831 32.0715C24.9831 28.7124 27.7124 25.9831 31.0715 25.9831V21.9941C25.6129 21.9941 20.9941 26.6129 20.9941 32.0715H24.9831Z" fill="white"/>
<path d="M17.0046 32.0718C17.0046 24.3039 23.3029 18.0055 31.0709 18.0055V13.8066C20.9935 13.8066 13.0156 21.9945 13.0156 31.8619H17.0046V32.0718Z" fill="white"/>
<path d="M8.81707 32.0712C8.81707 19.8944 18.8944 9.81708 31.0712 9.81708V5.82812C16.585 5.82812 4.82812 17.585 4.82812 32.0712H8.81707Z" fill="white"/>
</svg>
